<svg width="228" height="79" viewBox="0 0 228 79" fill="none" xmlns="http://www.w3.org/2000/svg">
<path d="M60 13H8C5.79086 13 4 14.7909 4 17V21C4 23.2091 5.79086 25 8 25H60C62.2091 25 64 23.2091 64 21V17C64 14.7909 62.2091 13 60 13Z" fill="#0EA5E9"/>
<path d="M60 31H16C13.7909 31 12 32.7909 12 35V39C12 41.2091 13.7909 43 16 43H60C62.2091 43 64 41.2091 64 39V35C64 32.7909 62.2091 31 60 31Z" fill="#38BDF8"/>
<path d="M64 49H4C1.79086 49 0 50.7909 0 53V57C0 59.2091 1.79086 61 4 61H64C66.2091 61 68 59.2091 68 57V53C68 50.7909 66.2091 49 64 49Z" fill="#67E8F9"/>
<path d="M88.32 61V17.2H97.5L109.68 52.6C109.56 51.32 109.42 49.82 109.26 48.1C109.14 46.34 109.04 44.56 108.96 42.76C108.88 40.92 108.84 39.32 108.84 37.96V17.2H115.68V61H106.5L94.44 25.6C94.52 26.76 94.62 28.16 94.74 29.8C94.86 31.44 94.96 33.12 95.04 34.84C95.12 36.56 95.16 38.14 95.16 39.58V61H88.32ZM124.537 61V54.16H136.057V34.78H126.037V28H143.257V54.16H153.457V61H124.537ZM139.057 22.48C137.537 22.48 136.337 22.1 135.457 21.34C134.577 20.54 134.137 19.48 134.137 18.16C134.137 16.84 134.577 15.8 135.457 15.04C136.337 14.24 137.537 13.84 139.057 13.84C140.577 13.84 141.777 14.24 142.657 15.04C143.537 15.8 143.977 16.84 143.977 18.16C143.977 19.48 143.537 20.54 142.657 21.34C141.777 22.1 140.577 22.48 139.057 22.48ZM178.993 61C176.833 61 174.933 60.56 173.293 59.68C171.693 58.8 170.433 57.56 169.513 55.96C168.593 54.32 168.133 52.44 168.133 50.32V23.98H157.573V17.2H175.633V50.32C175.633 51.52 175.973 52.48 176.653 53.2C177.373 53.88 178.333 54.22 179.533 54.22H189.493V61H178.993ZM206.27 61.6C202.87 61.6 200.19 60.7 198.23 58.9C196.27 57.1 195.29 54.68 195.29 51.64C195.29 48.4 196.37 45.9 198.53 44.14C200.69 42.38 203.75 41.5 207.71 41.5H215.93V38.68C215.93 37.08 215.41 35.84 214.37 34.96C213.33 34.04 211.91 33.58 210.11 33.58C208.47 33.58 207.11 33.94 206.03 34.66C204.95 35.38 204.31 36.36 204.11 37.6H196.79C197.15 34.48 198.55 32 200.99 30.16C203.43 28.32 206.55 27.4 210.35 27.4C214.39 27.4 217.57 28.42 219.89 30.46C222.25 32.46 223.43 35.18 223.43 38.62V61H216.17V55.24H214.97L216.17 53.62C216.17 56.06 215.27 58 213.47 59.44C211.67 60.88 209.27 61.6 206.27 61.6ZM208.73 55.96C210.85 55.96 212.57 55.42 213.89 54.34C215.25 53.26 215.93 51.86 215.93 50.14V46.12H207.83C206.31 46.12 205.09 46.56 204.17 47.44C203.25 48.32 202.79 49.48 202.79 50.92C202.79 52.48 203.31 53.72 204.35 54.64C205.43 55.52 206.89 55.96 208.73 55.96Z" fill="#0EA5E9"/>
</svg>
